<?xml version="1.0" standalone="no"?>
<!DOCTYPE svg PUBLIC "-//W3C//DTD SVG 20010904//EN"
 "http://www.w3.org/TR/2001/REC-SVG-20010904/DTD/svg10.dtd">
<svg version="1.0" xmlns="http://www.w3.org/2000/svg"
 width="512.000000pt" height="512.000000pt" viewBox="0 0 512.000000 512.000000"
 preserveAspectRatio="xMidYMid meet">

<g transform="translate(0.000000,512.000000) scale(0.100000,-0.100000)"
fill="#000000" stroke="none">
<path d="M2070 4195 c-750 -309 -1124 -468 -1122 -477 8 -37 178 -438 185
-438 5 0 436 176 958 390 771 317 954 388 969 380 11 -6 306 -377 656 -826
573 -734 638 -814 653 -801 9 8 96 76 193 151 l178 138 -75 96 c-550 712
-1444 1847 -1455 1849 -8 1 -521 -207 -1140 -462z"/>
<path d="M2139 3582 l-866 -356 -208 -774 c-114 -425 -205 -775 -202 -778 3
-3 30 -12 61 -20 l57 -15 59 37 c32 20 87 46 121 59 l63 22 177 664 c98 365
183 674 188 687 7 15 19 22 38 22 52 0 857 -220 877 -240 19 -18 16 -29 -132
-582 -83 -309 -150 -564 -148 -565 2 -2 32 3 67 12 81 19 216 19 297 0 73 -17
157 -58 247 -120 105 -72 171 -73 269 -4 33 23 78 52 100 65 27 15 35 25 26
28 -8 3 -143 39 -300 80 -157 42 -295 80 -307 86 -16 7 -23 18 -23 37 0 38
216 842 231 859 6 8 21 14 33 14 45 1 971 -253 990 -271 19 -18 18 -24 -79
-386 -54 -202 -100 -373 -102 -379 -2 -6 22 -21 54 -32 32 -12 99 -48 148 -81
49 -33 92 -57 96 -53 3 4 56 195 117 425 l112 418 -583 747 c-321 411 -589
748 -597 749 -8 1 -405 -159 -881 -355z"/>
<path d="M1501 2407 c-90 -336 -166 -618 -168 -624 -3 -10 12 -13 60 -13 68 0
195 -28 249 -56 18 -9 70 -41 114 -71 119 -79 178 -82 276 -16 29 19 56 38 60
42 8 7 308 1122 308 1145 0 9 -3 16 -6 16 -3 0 -165 43 -359 95 -195 52 -357
95 -362 95 -4 0 -82 -276 -172 -613z"/>
<path d="M2900 2686 c0 -2 -43 -162 -95 -357 -52 -194 -91 -356 -87 -360 10
-10 362 -102 368 -96 11 11 193 711 187 717 -7 6 -351 100 -366 100 -4 0 -7
-2 -7 -4z"/>
<path d="M3374 2547 c-2 -7 -47 -169 -98 -360 l-92 -347 40 -11 c23 -6 81 -22
130 -35 62 -18 107 -24 153 -22 l66 3 88 330 c49 182 89 337 89 345 0 11 -46
28 -177 63 -98 26 -182 47 -186 47 -4 0 -10 -6 -13 -13z"/>
<path d="M1245 1656 c-73 -19 -110 -37 -204 -100 -46 -30 -100 -60 -120 -66
-90 -25 -179 -4 -273 63 -81 57 -140 87 -173 87 -85 0 -140 -94 -103 -176 12
-25 158 -128 248 -174 106 -54 276 -63 395 -21 32 12 100 48 150 81 101 67
136 80 210 80 74 0 109 -13 210 -80 106 -70 176 -97 273 -106 134 -13 245 20
383 113 91 61 125 73 203 73 69 0 115 -18 203 -78 130 -88 227 -118 359 -109
107 8 178 34 289 107 103 68 136 80 215 80 72 -1 109 -15 200 -77 98 -67 157
-92 252 -106 93 -13 206 1 282 37 88 40 251 152 264 180 27 60 5 134 -48 161
-57 30 -101 16 -235 -76 -84 -57 -140 -73 -218 -65 -65 7 -88 17 -191 87 -114
77 -168 93 -311 93 -143 0 -197 -16 -311 -93 -101 -69 -124 -80 -187 -87 -82
-10 -142 9 -240 76 -133 90 -177 104 -327 104 -149 0 -190 -13 -327 -103 -102
-69 -155 -86 -236 -77 -65 7 -92 19 -194 88 -40 27 -98 59 -130 70 -73 26
-235 34 -308 14z"/>
<path d="M1301 868 c-82 -9 -172 -45 -250 -102 -85 -62 -128 -78 -205 -78 -80
0 -125 15 -195 65 -118 86 -188 107 -239 71 -49 -34 -66 -112 -36 -162 22 -38
233 -170 307 -194 75 -24 207 -28 287 -9 69 17 111 38 218 110 l85 56 102 0
101 0 97 -64 c133 -87 206 -113 327 -114 129 0 200 21 314 96 119 78 142 87
226 87 84 0 107 -9 226 -87 108 -71 185 -96 299 -96 138 -1 203 21 353 122 84
55 86 56 169 60 99 4 116 -2 235 -80 118 -77 196 -102 318 -102 122 1 193 24
320 106 121 78 148 103 156 144 9 46 -2 81 -36 114 -53 53 -120 38 -251 -58
-69 -49 -115 -65 -191 -65 -79 -1 -112 11 -193 67 -125 88 -208 116 -339 116
-132 0 -218 -28 -326 -106 -84 -61 -128 -77 -204 -78 -84 0 -112 11 -225 87
-109 73 -185 97 -311 97 -126 0 -205 -25 -313 -98 -107 -73 -137 -85 -219 -85
-79 -1 -112 11 -193 67 -143 101 -249 129 -414 113z"/>
</g>
</svg>
